<?xml version="1.0" encoding="utf-8"?>
<!-- Generator: Adobe Illustrator 24.0.3, SVG Export Plug-In . SVG Version: 6.00 Build 0)  -->
<svg version="1.1" id="vzba071a90" xmlns="http://www.w3.org/2000/svg" xmlns:xlink="http://www.w3.org/1999/xlink" x="0px" y="0px"
	 viewBox="0 0 1016 649" style="enable-background:new 0 0 1016 649;" xml:space="preserve">
<style type="text/css">
	.st0{fill:none;}
	.st1{fill:none;stroke:#0099FF;stroke-width:152;stroke-linecap:round;stroke-opacity:0.4;}
	.st2{fill:none;stroke:#0099FF;stroke-width:20;stroke-linecap:round;stroke-opacity:0.4;}
	.st3{fill:none;stroke:#0099FF;stroke-width:34;stroke-linecap:round;stroke-opacity:0.4;}
	.st4{fill:none;stroke:#0099FF;stroke-width:66;stroke-linecap:round;stroke-opacity:0.4;}
	.st5{fill:none;stroke:#0099FF;stroke-width:86;stroke-linecap:round;stroke-opacity:0.4;}
	.st6{fill:none;stroke:#0099FF;stroke-width:24;stroke-linecap:round;stroke-opacity:0.4;}
	.st7{fill:none;stroke:#0099FF;stroke-width:26;stroke-linecap:round;stroke-opacity:0.4;}
	.st8{fill:none;stroke:#0099FF;stroke-width:30;stroke-linecap:round;stroke-opacity:0.4;}
	.st9{fill:none;stroke:#0099FF;stroke-width:28;stroke-linecap:round;stroke-opacity:0.4;}
	.st10{fill:#222222;}
	.st11{font-family:'Roboto-Regular';}
	.st12{font-size:14px;}
	.st13{enable-background:new    ;}
	.st14{fill:none;stroke:#777777;}
	.st15{fill:#0099FF;stroke:#0099FF;}
	.st16{fill:none;stroke:#FFFFFF;}
	.st17{fill:#0099FF;}
</style>
<g>
	<g transform="translate(241.5,234.8888888888889)">
		<polygon class="st0" points="-107.5,38.7 -107.5,38.7 -107.5,38.7 		"/>
		<g>
			<path class="st1" d="M-107.5,195.1c70.7,0,70.7-150,141.4-150"/>
			<path class="st2" d="M-107.5,195.1c70.7,0,70.7,0,141.4,0"/>
			<path class="st3" d="M-107.5,195.1c70.7,0,70.7,150,141.4,150"/>
			<path class="st4" d="M33.9,45.1c70.7,0,70.7-150,141.4-150"/>
			<path class="st5" d="M33.9,45.1c70.7,0,70.7,150,141.4,150"/>
			<path class="st6" d="M175.3-104.9c70.7,0,70.7-60,141.4-60"/>
			<path class="st2" d="M175.3-104.9c70.7,0,70.7,0,141.4,0"/>
			<path class="st7" d="M175.3-104.9c70.7,0,70.7,60,141.4,60"/>
			<path class="st2" d="M316.7-44.9c70.7,0,70.7-30,141.4-30"/>
			<path class="st2" d="M316.7-44.9c70.7,0,70.7,30,141.4,30"/>
			<path class="st2" d="M175.3,195.1c70.7,0,70.7-120,141.4-120"/>
			<path class="st8" d="M175.3,195.1c70.7,0,70.7-60,141.4-60"/>
			<path class="st2" d="M175.3,195.1c70.7,0,70.7,30,141.4,30"/>
			<path class="st9" d="M175.3,195.1c70.7,0,70.7,120,141.4,120"/>
			<path class="st2" d="M316.7,135.1c70.7,0,70.7-30,141.4-30"/>
			<path class="st2" d="M316.7,135.1c70.7,0,70.7,30,141.4,30"/>
			<path class="st2" d="M316.7,315.1c70.7,0,70.7-30,141.4-30"/>
			<path class="st2" d="M316.7,315.1c70.7,0,70.7,30,141.4,30"/>
			<path class="st2" d="M33.9,345.1c70.7,0,70.7-30,141.4-30"/>
			<path class="st2" d="M33.9,345.1c70.7,0,70.7,30,141.4,30"/>
		</g>
		<g>
			<g transform="translate(141.39999389648438,306.3999938964844)">
				<text transform="matrix(1 0 0 1 -122.5329 17.7689)" class="st10 st11 st12">Small Role</text>
				<g id="node_39_text" class="st13">
					<text transform="matrix(1 0 0 1 -122.5329 17.7689)" class="st14 st11 st12">Small Role</text>
				</g>
				<circle class="st15" cx="-107.5" cy="38.7" r="17"/>
				<g class="st13">
					<text transform="matrix(1 0 0 1 -118.5329 44.7216)" class="st16 st11 st12">17</text>
				</g>
			</g>
			<g transform="translate(141.39999389648438,156.39999389648438)">
				<text transform="matrix(1 0 0 1 -122.5329 23.7216)" class="st10 st11 st12">Educational</text>
				<g id="node_34_text" class="st13">
					<text transform="matrix(1 0 0 1 -122.5329 23.7216)" class="st14 st11 st12">Educational</text>
				</g>
				<circle class="st15" cx="-107.5" cy="38.7" r="10"/>
				<g class="st13">
					<text transform="matrix(1 0 0 1 -112.5329 44.7216)" class="st16 st11 st12">6</text>
				</g>
			</g>
			<g transform="translate(141.39999389648438,6.400000095367432)">
				<text transform="matrix(1 0 0 1 -122.5329 -40.4222)" class="st10 st11 st12">Positive</text>
				<g id="node_15_text" class="st13">
					<text transform="matrix(1 0 0 1 -122.5329 -40.4222)" class="st14 st11 st12">Positive</text>
				</g>
				<circle class="st15" cx="-107.5" cy="38.7" r="76"/>
				<g class="st13">
					<text transform="matrix(1 0 0 1 -118.5329 44.7216)" class="st16 st11 st12">76</text>
				</g>
			</g>
			<g transform="translate(0,156.39999389648438)">
				<circle class="st17" cx="-107.5" cy="38.7" r="95"/>
			</g>
			<g transform="translate(282.79998779296875,156.39999389648438)">
				<circle class="st15" cx="-107.5" cy="38.7" r="43"/>
				<g class="st13">
					<text transform="matrix(1 0 0 1 -118.5329 44.7216)" class="st16 st11 st12">43</text>
				</g>
				<text transform="matrix(1 0 0 1 -159.3258 18.7218)" class="st10 st11 st12">More and Better Social Connections</text>
				<g id="node_27_text" class="st13">
					<text transform="matrix(1 0 0 1 -159.3258 18.7218)" class="st14 st11 st12">More and Better Social Connections</text>
				</g>
			</g>
			<g transform="translate(282.79998779296875,-143.60000610351562)">
				<text transform="matrix(1 0 0 1 -231.9328 0.5661)" class="st10 st11 st12">Expanded Possibilities and Relaxation</text>
				<g id="node_9_text" class="st13">
					<text transform="matrix(1 0 0 1 -231.9328 0.5661)" class="st14 st11 st12">Expanded Possibilities and Relaxation</text>
				</g>
				<circle class="st15" cx="-107.5" cy="38.7" r="33"/>
				<g class="st13">
					<text transform="matrix(1 0 0 1 -118.5329 44.7216)" class="st16 st11 st12">33</text>
				</g>
			</g>
			<g transform="translate(424.20001220703125,-83.5999984741211)">
				<text transform="matrix(1 0 0 1 -180.4596 21.1026)" class="st10 st11 st12">Exploration and Development</text>
				<g id="node_13_text" class="st13">
					<text transform="matrix(1 0 0 1 -180.4596 21.1026)" class="st14 st11 st12">Exploration and Development</text>
				</g>
				<circle class="st15" cx="-107.5" cy="38.7" r="13"/>
				<g class="st13">
					<text transform="matrix(1 0 0 1 -118.5329 44.7216)" class="st16 st11 st12">13</text>
				</g>
			</g>
			<g transform="translate(424.20001220703125,-143.60000610351562)">
				<text transform="matrix(1 0 0 1 -122.5329 23.7216)" class="st10 st11 st12">Broadened World View</text>
				<g id="node_8_text" class="st13">
					<text transform="matrix(1 0 0 1 -122.5329 23.7216)" class="st14 st11 st12">Broadened World View</text>
				</g>
				<circle class="st15" cx="-107.5" cy="38.7" r="10"/>
				<g class="st13">
					<text transform="matrix(1 0 0 1 -112.5329 44.7216)" class="st16 st11 st12">8</text>
				</g>
			</g>
			<g transform="translate(424.20001220703125,-203.60000610351562)">
				<text transform="matrix(1 0 0 1 -122.5329 21.8185)" class="st10 st11 st12">Break from Classes</text>
				<g id="node_6_text" class="st13">
					<text transform="matrix(1 0 0 1 -122.5329 21.8185)" class="st14 st11 st12">Break from Classes</text>
				</g>
				<circle class="st15" cx="-107.5" cy="38.7" r="12"/>
				<g class="st13">
					<text transform="matrix(1 0 0 1 -118.5329 44.7216)" class="st16 st11 st12">12</text>
				</g>
			</g>
			<g transform="translate(565.5999755859375,-53.599998474121094)">
				<text transform="matrix(1 0 0 1 -122.5329 23.7216)" class="st10 st11 st12">Personal Enhancement Enrichment</text>
				<g id="node_14_text" class="st13">
					<text transform="matrix(1 0 0 1 -122.5329 23.7216)" class="st14 st11 st12">Personal Enhancement Enrichment</text>
				</g>
				<circle class="st15" cx="-107.5" cy="38.7" r="10"/>
				<g class="st13">
					<text transform="matrix(1 0 0 1 -112.5329 44.7216)" class="st16 st11 st12">6</text>
				</g>
			</g>
			<g transform="translate(565.5999755859375,-113.5999984741211)">
				<text transform="matrix(1 0 0 1 -122.5329 23.7216)" class="st10 st11 st12">Encouraged Exploration</text>
				<g id="node_12_text" class="st13">
					<text transform="matrix(1 0 0 1 -122.5329 23.7216)" class="st14 st11 st12">Encouraged Exploration</text>
				</g>
				<circle class="st15" cx="-107.5" cy="38.7" r="10"/>
				<g class="st13">
					<text transform="matrix(1 0 0 1 -112.5329 44.7216)" class="st16 st11 st12">7</text>
				</g>
			</g>
			<g transform="translate(424.20001220703125,276.3999938964844)">
				<text transform="matrix(1 0 0 1 -122.5329 20.3358)" class="st10 st11 st12">Social Connections</text>
				<g id="node_31_text" class="st13">
					<text transform="matrix(1 0 0 1 -122.5329 20.3358)" class="st14 st11 st12">Social Connections</text>
				</g>
				<circle class="st15" cx="-107.5" cy="38.7" r="14"/>
				<g class="st13">
					<text transform="matrix(1 0 0 1 -118.5329 44.7216)" class="st16 st11 st12">14</text>
				</g>
			</g>
			<g transform="translate(424.20001220703125,186.39999389648438)">
				<text transform="matrix(1 0 0 1 -122.5329 23.7216)" class="st10 st11 st12">Greater Involvement</text>
				<g id="node_26_text" class="st13">
					<text transform="matrix(1 0 0 1 -122.5329 23.7216)" class="st14 st11 st12">Greater Involvement</text>
				</g>
				<circle class="st15" cx="-107.5" cy="38.7" r="10"/>
				<g class="st13">
					<text transform="matrix(1 0 0 1 -112.5329 44.7216)" class="st16 st11 st12">6</text>
				</g>
			</g>
			<g transform="translate(424.20001220703125,96.4000015258789)">
				<text transform="matrix(1 0 0 1 -122.5329 19.5221)" class="st10 st11 st12">Personal Enhancement</text>
				<g id="node_23_text" class="st13">
					<text transform="matrix(1 0 0 1 -122.5329 19.5221)" class="st14 st11 st12">Personal Enhancement</text>
				</g>
				<circle class="st15" cx="-107.5" cy="38.7" r="15"/>
				<g class="st13">
					<text transform="matrix(1 0 0 1 -118.5329 44.7216)" class="st16 st11 st12">15</text>
				</g>
			</g>
			<g transform="translate(424.20001220703125,36.400001525878906)">
				<text transform="matrix(1 0 0 1 -122.5329 23.7216)" class="st10 st11 st12">Fun Social Activities</text>
				<g id="node_18_text" class="st13">
					<text transform="matrix(1 0 0 1 -122.5329 23.7216)" class="st14 st11 st12">Fun Social Activities</text>
				</g>
				<circle class="st15" cx="-107.5" cy="38.7" r="10"/>
				<g class="st13">
					<text transform="matrix(1 0 0 1 -112.5329 44.7216)" class="st16 st11 st12">8</text>
				</g>
			</g>
			<g transform="translate(565.5999755859375,126.4000015258789)">
				<text transform="matrix(1 0 0 1 -122.5329 23.7216)" class="st10 st11 st12">Personal Enhancement Growth and Well-Being</text>
				<g id="node_24_text" class="st13">
					<text transform="matrix(1 0 0 1 -122.5329 23.7216)" class="st14 st11 st12">Personal Enhancement Growth and Well-Being</text>
				</g>
				<circle class="st15" cx="-107.5" cy="38.7" r="10"/>
				<g class="st13">
					<text transform="matrix(1 0 0 1 -112.5329 44.7216)" class="st16 st11 st12">7</text>
				</g>
			</g>
			<g transform="translate(565.5999755859375,66.4000015258789)">
				<text transform="matrix(1 0 0 1 -122.5329 23.7216)" class="st10 st11 st12">Entertainment</text>
				<g id="node_22_text" class="st13">
					<text transform="matrix(1 0 0 1 -122.5329 23.7216)" class="st14 st11 st12">Entertainment</text>
				</g>
				<circle class="st15" cx="-107.5" cy="38.7" r="10"/>
				<g class="st13">
					<text transform="matrix(1 0 0 1 -112.5329 44.7216)" class="st16 st11 st12">8</text>
				</g>
			</g>
			<g transform="translate(565.5999755859375,306.3999938964844)">
				<text transform="matrix(1 0 0 1 -122.5329 23.7216)" class="st10 st11 st12">Meet New Friends</text>
				<g id="node_32_text" class="st13">
					<text transform="matrix(1 0 0 1 -122.5329 23.7216)" class="st14 st11 st12">Meet New Friends</text>
				</g>
				<circle class="st15" cx="-107.5" cy="38.7" r="10"/>
				<g class="st13">
					<text transform="matrix(1 0 0 1 -112.5329 44.7216)" class="st16 st11 st12">5</text>
				</g>
			</g>
			<g transform="translate(565.5999755859375,246.39999389648438)">
				<text transform="matrix(1 0 0 1 -122.5329 23.7216)" class="st10 st11 st12">New People and Skills</text>
				<g id="node_30_text" class="st13">
					<text transform="matrix(1 0 0 1 -122.5329 23.7216)" class="st14 st11 st12">New People and Skills</text>
				</g>
				<circle class="st15" cx="-107.5" cy="38.7" r="10"/>
				<g class="st13">
					<text transform="matrix(1 0 0 1 -112.5329 44.7216)" class="st16 st11 st12">9</text>
				</g>
			</g>
			<g transform="translate(282.79998779296875,336.3999938964844)">
				<text transform="matrix(1 0 0 1 -122.5329 23.7216)" class="st10 st11 st12">Small Role</text>
				<g id="node_40_text" class="st13">
					<text transform="matrix(1 0 0 1 -122.5329 23.7216)" class="st14 st11 st12">Small Role</text>
				</g>
				<circle class="st15" cx="-107.5" cy="38.7" r="10"/>
				<g class="st13">
					<text transform="matrix(1 0 0 1 -112.5329 44.7216)" class="st16 st11 st12">7</text>
				</g>
			</g>
			<g transform="translate(282.79998779296875,276.3999938964844)">
				<text transform="matrix(1 0 0 1 -184.7002 23.7219)" class="st10 st11 st12">Unable to Participate Much</text>
				<g id="node_38_text" class="st13">
					<text transform="matrix(1 0 0 1 -184.7002 23.7219)" class="st14 st11 st12">Unable to Participate Much</text>
				</g>
				<circle class="st15" cx="-107.5" cy="38.7" r="10"/>
				<g class="st13">
					<text transform="matrix(1 0 0 1 -118.5329 44.7216)" class="st16 st11 st12">10</text>
				</g>
			</g>
		</g>
	</g>
</g>
</svg>
