<?xml version="1.0" encoding="utf-8"?>
<!-- Generator: Adobe Illustrator 24.0.1, SVG Export Plug-In . SVG Version: 6.00 Build 0)  -->
<svg version="1.1" id="vz972d65ca" xmlns="http://www.w3.org/2000/svg" xmlns:xlink="http://www.w3.org/1999/xlink" x="0px" y="0px"
	 viewBox="0 0 1200 1600" style="enable-background:new 0 0 1200 1600;" xml:space="preserve">
<style type="text/css">
	.st0{fill:none;}
	.st1{fill:none;stroke:#0099FF;stroke-width:60;stroke-linecap:round;stroke-opacity:0.4;}
	.st2{fill:none;stroke:#0099FF;stroke-width:140;stroke-linecap:round;stroke-opacity:0.4;}
	.st3{fill:none;stroke:#0099FF;stroke-width:28;stroke-linecap:round;stroke-opacity:0.4;}
	.st4{fill:none;stroke:#0099FF;stroke-width:20;stroke-linecap:round;stroke-opacity:0.4;}
	.st5{fill:none;stroke:#0099FF;stroke-width:40;stroke-linecap:round;stroke-opacity:0.4;}
	.st6{fill:none;stroke:#0099FF;stroke-width:48;stroke-linecap:round;stroke-opacity:0.4;}
	.st7{fill:none;stroke:#0099FF;stroke-width:34;stroke-linecap:round;stroke-opacity:0.4;}
	.st8{fill:none;stroke:#0099FF;stroke-width:30;stroke-linecap:round;stroke-opacity:0.4;}
	.st9{fill:#222222;}
	.st10{font-family:'ArialMT';}
	.st11{font-size:14px;}
	.st12{enable-background:new    ;}
	.st13{fill:none;stroke:#777777;}
	.st14{fill:#0099FF;stroke:#0099FF;}
	.st15{fill:none;stroke:#FFFFFF;}
	.st16{fill:#0099FF;}
</style>
<g>
	<g transform="translate(238.5,243.8888888888889)">
		<polygon class="st0" points="-58.8,101.9 -58.8,101.9 -58.8,101.9 		"/>
		<g>
			<path class="st1" d="M-58.8,579.3c98,0,98-330,196-330"/>
			<path class="st2" d="M-58.8,579.3c98,0,98,330,196,330"/>
			<path class="st3" d="M137.2,249.3c98,0,98-240,196-240"/>
			<path class="st4" d="M137.2,249.3c98,0,98,30,196,30"/>
			<path class="st4" d="M137.2,249.3c98,0,98,240,196,240"/>
			<path class="st4" d="M333.2,9.3c98,0,98-90,196-90"/>
			<path class="st4" d="M333.2,9.3c98,0,98,90,196,90"/>
			<path class="st4" d="M529.2-80.7c98,0,98-30,196-30"/>
			<path class="st4" d="M529.2-80.7c98,0,98,30,196,30"/>
			<path class="st4" d="M529.2,99.3c98,0,98-30,196-30"/>
			<path class="st4" d="M529.2,99.3c98,0,98,30,196,30"/>
			<path class="st4" d="M333.2,279.3c98,0,98-60,196-60"/>
			<path class="st4" d="M333.2,279.3c98,0,98,0,196,0"/>
			<path class="st4" d="M333.2,279.3c98,0,98,60,196,60"/>
			<path class="st4" d="M333.2,489.3c98,0,98-30,196-30"/>
			<path class="st4" d="M333.2,489.3c98,0,98,30,196,30"/>
			<path class="st5" d="M137.2,909.3c98,0,98-240,196-240"/>
			<path class="st6" d="M137.2,909.3c98,0,98-135,196-135"/>
			<path class="st4" d="M137.2,909.3c98,0,98-30,196-30"/>
			<path class="st7" d="M137.2,909.3c98,0,98,240,196,240"/>
			<path class="st4" d="M333.2,669.3c98,0,98-30,196-30"/>
			<path class="st8" d="M333.2,669.3c98,0,98,30,196,30"/>
			<path class="st4" d="M333.2,879.3c98,0,98-60,196-60"/>
			<path class="st4" d="M333.2,879.3c98,0,98,0,196,0"/>
			<path class="st4" d="M333.2,879.3c98,0,98,60,196,60"/>
			<path class="st4" d="M333.2,1149.3c98,0,98-90,196-90"/>
			<path class="st4" d="M333.2,1149.3c98,0,98-30,196-30"/>
			<path class="st4" d="M333.2,1149.3c98,0,98,30,196,30"/>
			<path class="st4" d="M333.2,1149.3c98,0,98,90,196,90"/>
		</g>
		<g>
			<g transform="translate(196,807.4000244140625)">
				<text transform="matrix(1 0 0 1 -73.7583 28.7488)" class="st9 st10 st11">Priorities &amp; Tradeoffs</text>
				<g id="node_49_text" class="st12">
					<text transform="matrix(1 0 0 1 -73.7583 28.7488)" class="st13 st10 st11">Priorities &amp; Tradeoffs</text>
				</g>
				<circle class="st14" cx="-58.8" cy="101.9" r="70"/>
				<g class="st12">
					<text transform="matrix(1 0 0 1 -69.7583 107.9448)" class="st15 st10 st11">70</text>
				</g>
			</g>
			<g transform="translate(196,147.39999389648438)">
				<text transform="matrix(1 0 0 1 -73.7583 67.1859)" class="st9 st10 st11">University Context</text>
				<g id="node_25_text" class="st12">
					<text transform="matrix(1 0 0 1 -73.7583 67.1859)" class="st13 st10 st11">University Context</text>
				</g>
				<circle class="st14" cx="-58.8" cy="101.9" r="30"/>
				<g class="st12">
					<text transform="matrix(1 0 0 1 -69.7583 107.9448)" class="st15 st10 st11">30</text>
				</g>
			</g>
			<g transform="translate(0,477.3999938964844)">
				<circle class="st16" cx="-58.8" cy="101.9" r="95"/>
			</g>
			<g transform="translate(392,387.3999938964844)">
				<text transform="matrix(1 0 0 1 -73.7583 86.9448)" class="st9 st10 st11">Publicity</text>
				<g id="node_29_text" class="st12">
					<text transform="matrix(1 0 0 1 -73.7583 86.9448)" class="st13 st10 st11">Publicity</text>
				</g>
				<circle class="st14" cx="-58.8" cy="101.9" r="10"/>
				<g class="st12">
					<text transform="matrix(1 0 0 1 -63.7583 107.9448)" class="st15 st10 st11">6</text>
				</g>
			</g>
			<g transform="translate(392,177.39999389648438)">
				<text transform="matrix(1 0 0 1 -73.7583 86.9448)" class="st9 st10 st11">University Structure</text>
				<g id="node_23_text" class="st12">
					<text transform="matrix(1 0 0 1 -73.7583 86.9448)" class="st13 st10 st11">University Structure</text>
				</g>
				<circle class="st14" cx="-58.8" cy="101.9" r="10"/>
				<g class="st12">
					<text transform="matrix(1 0 0 1 -69.7583 107.9448)" class="st15 st10 st11">10</text>
				</g>
			</g>
			<g transform="translate(392,-92.5999984741211)">
				<text transform="matrix(1 0 0 1 -73.7583 83.559)" class="st9 st10 st11">Social Climate</text>
				<g id="node_11_text" class="st12">
					<text transform="matrix(1 0 0 1 -73.7583 83.559)" class="st13 st10 st11">Social Climate</text>
				</g>
				<circle class="st14" cx="-58.8" cy="101.9" r="14"/>
				<g class="st12">
					<text transform="matrix(1 0 0 1 -69.7583 107.9448)" class="st15 st10 st11">14</text>
				</g>
			</g>
			<g transform="translate(588,-2.5999999046325684)">
				<text transform="matrix(1 0 0 1 -73.7583 86.9448)" class="st9 st10 st11">Exclusiveness</text>
				<g id="node_15_text" class="st12">
					<text transform="matrix(1 0 0 1 -73.7583 86.9448)" class="st13 st10 st11">Exclusiveness</text>
				</g>
				<circle class="st14" cx="-58.8" cy="101.9" r="10"/>
				<g class="st12">
					<text transform="matrix(1 0 0 1 -63.7583 107.9448)" class="st15 st10 st11">8</text>
				</g>
			</g>
			<g transform="translate(588,-182.60000610351562)">
				<text transform="matrix(1 0 0 1 -73.7583 86.9448)" class="st9 st10 st11">Apprehension</text>
				<g id="node_9_text" class="st12">
					<text transform="matrix(1 0 0 1 -73.7583 86.9448)" class="st13 st10 st11">Apprehension</text>
				</g>
				<circle class="st14" cx="-58.8" cy="101.9" r="10"/>
				<g class="st12">
					<text transform="matrix(1 0 0 1 -63.7583 107.9448)" class="st15 st10 st11">6</text>
				</g>
			</g>
			<g transform="translate(784,-152.60000610351562)">
				<text transform="matrix(1 0 0 1 -73.7583 86.9448)" class="st9 st10 st11">Lack of Familiarity</text>
				<g id="node_10_text" class="st12">
					<text transform="matrix(1 0 0 1 -73.7583 86.9448)" class="st13 st10 st11">Lack of Familiarity</text>
				</g>
				<circle class="st14" cx="-58.8" cy="101.9" r="10"/>
				<g class="st12">
					<text transform="matrix(1 0 0 1 -63.7583 107.9448)" class="st15 st10 st11">3</text>
				</g>
			</g>
			<g transform="translate(784,-212.60000610351562)">
				<text transform="matrix(1 0 0 1 -73.7583 86.9448)" class="st9 st10 st11">Low Confidence</text>
				<g id="node_8_text" class="st12">
					<text transform="matrix(1 0 0 1 -73.7583 86.9448)" class="st13 st10 st11">Low Confidence</text>
				</g>
				<circle class="st14" cx="-58.8" cy="101.9" r="10"/>
				<g class="st12">
					<text transform="matrix(1 0 0 1 -63.7583 107.9448)" class="st15 st10 st11">3</text>
				</g>
			</g>
			<g transform="translate(784,27.399999618530273)">
				<text transform="matrix(1 0 0 1 -73.7583 86.9448)" class="st9 st10 st11">Unwelcoming Environment</text>
				<g id="node_16_text" class="st12">
					<text transform="matrix(1 0 0 1 -73.7583 86.9448)" class="st13 st10 st11">Unwelcoming Environment</text>
				</g>
				<circle class="st14" cx="-58.8" cy="101.9" r="10"/>
				<g class="st12">
					<text transform="matrix(1 0 0 1 -63.7583 107.9448)" class="st15 st10 st11">4</text>
				</g>
			</g>
			<g transform="translate(784,-32.599998474121094)">
				<text transform="matrix(1 0 0 1 -73.7583 86.9448)" class="st9 st10 st11">Competitive Auditions</text>
				<g id="node_14_text" class="st12">
					<text transform="matrix(1 0 0 1 -73.7583 86.9448)" class="st13 st10 st11">Competitive Auditions</text>
				</g>
				<circle class="st14" cx="-58.8" cy="101.9" r="10"/>
				<g class="st12">
					<text transform="matrix(1 0 0 1 -63.7583 107.9448)" class="st15 st10 st11">4</text>
				</g>
			</g>
			<g transform="translate(588,237.39999389648438)">
				<text transform="matrix(1 0 0 1 -73.7583 86.9448)" class="st9 st10 st11">Departmental Segregation</text>
				<g id="node_24_text" class="st12">
					<text transform="matrix(1 0 0 1 -73.7583 86.9448)" class="st13 st10 st11">Departmental Segregation</text>
				</g>
				<circle class="st14" cx="-58.8" cy="101.9" r="10"/>
				<g class="st12">
					<text transform="matrix(1 0 0 1 -63.7583 107.9448)" class="st15 st10 st11">4</text>
				</g>
			</g>
			<g transform="translate(588,177.39999389648438)">
				<text transform="matrix(1 0 0 1 -73.7583 86.9448)" class="st9 st10 st11">University Priorities</text>
				<g id="node_22_text" class="st12">
					<text transform="matrix(1 0 0 1 -73.7583 86.9448)" class="st13 st10 st11">University Priorities</text>
				</g>
				<circle class="st14" cx="-58.8" cy="101.9" r="10"/>
				<g class="st12">
					<text transform="matrix(1 0 0 1 -63.7583 107.9448)" class="st15 st10 st11">3</text>
				</g>
			</g>
			<g transform="translate(588,117.4000015258789)">
				<text transform="matrix(1 0 0 1 -73.7583 86.9448)" class="st9 st10 st11">Academic Program Requireme…</text>
				<g id="node_20_text" class="st12">
					<text transform="matrix(1 0 0 1 -73.7583 86.9448)" class="st13 st10 st11">Academic Program Requireme…</text>
				</g>
				<circle class="st14" cx="-58.8" cy="101.9" r="10"/>
				<g class="st12">
					<text transform="matrix(1 0 0 1 -63.7583 107.9448)" class="st15 st10 st11">3</text>
				</g>
			</g>
			<g transform="translate(588,417.3999938964844)">
				<text transform="matrix(1 0 0 1 -73.7583 86.9448)" class="st9 st10 st11">Accessibility</text>
				<g id="node_30_text" class="st12">
					<text transform="matrix(1 0 0 1 -73.7583 86.9448)" class="st13 st10 st11">Accessibility</text>
				</g>
				<circle class="st14" cx="-58.8" cy="101.9" r="10"/>
				<g class="st12">
					<text transform="matrix(1 0 0 1 -63.7583 107.9448)" class="st15 st10 st11">3</text>
				</g>
			</g>
			<g transform="translate(588,357.3999938964844)">
				<text transform="matrix(1 0 0 1 -73.7583 86.9448)" class="st9 st10 st11">Awareness</text>
				<g id="node_28_text" class="st12">
					<text transform="matrix(1 0 0 1 -73.7583 86.9448)" class="st13 st10 st11">Awareness</text>
				</g>
				<circle class="st14" cx="-58.8" cy="101.9" r="10"/>
				<g class="st12">
					<text transform="matrix(1 0 0 1 -63.7583 107.9448)" class="st15 st10 st11">3</text>
				</g>
			</g>
			<g transform="translate(392,1047.4000244140625)">
				<text transform="matrix(1 0 0 1 -73.7583 80.9921)" class="st9 st10 st11">Not Engaged</text>
				<g id="node_57_text" class="st12">
					<text transform="matrix(1 0 0 1 -73.7583 80.9921)" class="st13 st10 st11">Not Engaged</text>
				</g>
				<circle class="st14" cx="-58.8" cy="101.9" r="17"/>
				<g class="st12">
					<text transform="matrix(1 0 0 1 -69.7583 107.9449)" class="st15 st10 st11">17</text>
				</g>
			</g>
			<g transform="translate(392,777.4000244140625)">
				<text transform="matrix(1 0 0 1 -73.7583 86.9448)" class="st9 st10 st11">Logistics</text>
				<g id="node_47_text" class="st12">
					<text transform="matrix(1 0 0 1 -73.7583 86.9448)" class="st13 st10 st11">Logistics</text>
				</g>
				<circle class="st14" cx="-58.8" cy="101.9" r="10"/>
				<g class="st12">
					<text transform="matrix(1 0 0 1 -63.7583 107.9448)" class="st15 st10 st11">9</text>
				</g>
			</g>
			<g transform="translate(392,672.4000244140625)">
				<text transform="matrix(1 0 0 1 -73.7583 73.8928)" class="st9 st10 st11">Time</text>
				<g id="node_40_text" class="st12">
					<text transform="matrix(1 0 0 1 -73.7583 73.8928)" class="st13 st10 st11">Time</text>
				</g>
				<circle class="st14" cx="-58.8" cy="101.9" r="24"/>
				<g class="st12">
					<text transform="matrix(1 0 0 1 -69.7583 107.9448)" class="st15 st10 st11">24</text>
				</g>
			</g>
			<g transform="translate(392,567.4000244140625)">
				<text transform="matrix(1 0 0 1 -73.7583 78.1008)" class="st9 st10 st11">Academic Priorities</text>
				<g id="node_37_text" class="st12">
					<text transform="matrix(1 0 0 1 -73.7583 78.1008)" class="st13 st10 st11">Academic Priorities</text>
				</g>
				<circle class="st14" cx="-58.8" cy="101.9" r="20"/>
				<g class="st12">
					<text transform="matrix(1 0 0 1 -69.7583 107.9448)" class="st15 st10 st11">20</text>
				</g>
			</g>
			<g transform="translate(588,597.4000244140625)">
				<text transform="matrix(1 0 0 1 -73.7583 82.7453)" class="st9 st10 st11">Course Load</text>
				<g id="node_38_text" class="st12">
					<text transform="matrix(1 0 0 1 -73.7583 82.7453)" class="st13 st10 st11">Course Load</text>
				</g>
				<circle class="st14" cx="-58.8" cy="101.9" r="15"/>
				<g class="st12">
					<text transform="matrix(1 0 0 1 -69.7583 107.9448)" class="st15 st10 st11">15</text>
				</g>
			</g>
			<g transform="translate(588,537.4000244140625)">
				<text transform="matrix(1 0 0 1 -73.7583 86.9448)" class="st9 st10 st11">Fit With Major and Course …</text>
				<g id="node_36_text" class="st12">
					<text transform="matrix(1 0 0 1 -73.7583 86.9448)" class="st13 st10 st11">Fit With Major and Course …</text>
				</g>
				<circle class="st14" cx="-58.8" cy="101.9" r="10"/>
				<g class="st12">
					<text transform="matrix(1 0 0 1 -63.7583 107.9448)" class="st15 st10 st11">5</text>
				</g>
			</g>
			<g transform="translate(588,837.4000244140625)">
				<text transform="matrix(1 0 0 1 -73.7583 86.9448)" class="st9 st10 st11">Friend/Cost Ecosystem</text>
				<g id="node_48_text" class="st12">
					<text transform="matrix(1 0 0 1 -73.7583 86.9448)" class="st13 st10 st11">Friend/Cost Ecosystem</text>
				</g>
				<circle class="st14" cx="-58.8" cy="101.9" r="10"/>
				<g class="st12">
					<text transform="matrix(1 0 0 1 -63.7583 107.9448)" class="st15 st10 st11">2</text>
				</g>
			</g>
			<g transform="translate(588,777.4000244140625)">
				<text transform="matrix(1 0 0 1 -73.7583 86.9448)" class="st9 st10 st11">Cost</text>
				<g id="node_46_text" class="st12">
					<text transform="matrix(1 0 0 1 -73.7583 86.9448)" class="st13 st10 st11">Cost</text>
				</g>
				<circle class="st14" cx="-58.8" cy="101.9" r="10"/>
				<g class="st12">
					<text transform="matrix(1 0 0 1 -63.7583 107.9448)" class="st15 st10 st11">4</text>
				</g>
			</g>
			<g transform="translate(588,717.4000244140625)">
				<text transform="matrix(1 0 0 1 -73.7583 86.9448)" class="st9 st10 st11">Distance Between Campuses</text>
				<g id="node_44_text" class="st12">
					<text transform="matrix(1 0 0 1 -73.7583 86.9448)" class="st13 st10 st11">Distance Between Campuses</text>
				</g>
				<circle class="st14" cx="-58.8" cy="101.9" r="10"/>
				<g class="st12">
					<text transform="matrix(1 0 0 1 -63.7583 107.9448)" class="st15 st10 st11">3</text>
				</g>
			</g>
			<g transform="translate(588,1137.4000244140625)">
				<text transform="matrix(1 0 0 1 -73.7583 86.9449)" class="st9 st10 st11">Ennui</text>
				<g id="node_58_text" class="st12">
					<text transform="matrix(1 0 0 1 -73.7583 86.9449)" class="st13 st10 st11">Ennui</text>
				</g>
				<circle class="st14" cx="-58.8" cy="101.9" r="10"/>
				<g class="st12">
					<text transform="matrix(1 0 0 1 -63.7583 107.9449)" class="st15 st10 st11">3</text>
				</g>
			</g>
			<g transform="translate(588,1077.4000244140625)">
				<text transform="matrix(1 0 0 1 -73.7583 86.9449)" class="st9 st10 st11">No Barriers</text>
				<g id="node_56_text" class="st12">
					<text transform="matrix(1 0 0 1 -73.7583 86.9449)" class="st13 st10 st11">No Barriers</text>
				</g>
				<circle class="st14" cx="-58.8" cy="101.9" r="10"/>
				<g class="st12">
					<text transform="matrix(1 0 0 1 -63.7583 107.9449)" class="st15 st10 st11">5</text>
				</g>
			</g>
			<g transform="translate(588,1017.4000244140625)">
				<text transform="matrix(1 0 0 1 -73.7583 86.9449)" class="st9 st10 st11">Lack of Personal Interest</text>
				<g id="node_54_text" class="st12">
					<text transform="matrix(1 0 0 1 -73.7583 86.9449)" class="st13 st10 st11">Lack of Personal Interest</text>
				</g>
				<circle class="st14" cx="-58.8" cy="101.9" r="10"/>
				<g class="st12">
					<text transform="matrix(1 0 0 1 -63.7583 107.9449)" class="st15 st10 st11">5</text>
				</g>
			</g>
			<g transform="translate(588,957.4000244140625)">
				<text transform="matrix(1 0 0 1 -73.7583 86.9448)" class="st9 st10 st11">No Barriers, Except...</text>
				<g id="node_52_text" class="st12">
					<text transform="matrix(1 0 0 1 -73.7583 86.9448)" class="st13 st10 st11">No Barriers, Except...</text>
				</g>
				<circle class="st14" cx="-58.8" cy="101.9" r="10"/>
				<g class="st12">
					<text transform="matrix(1 0 0 1 -63.7583 107.9448)" class="st15 st10 st11">4</text>
				</g>
			</g>
		</g>
	</g>
</g>
</svg>
