<?xml version="1.0" encoding="utf-8"?>
<!-- Generator: Adobe Illustrator 24.0.3, SVG Export Plug-In . SVG Version: 6.00 Build 0)  -->
<svg version="1.1" id="vz85c3e02a" xmlns="http://www.w3.org/2000/svg" xmlns:xlink="http://www.w3.org/1999/xlink" x="0px" y="0px"
	 viewBox="0 0 833.5 734.6" style="enable-background:new 0 0 833.5 734.6;" xml:space="preserve">
<style type="text/css">
	.st0{fill:none;}
	.st1{fill:none;stroke:#0099FF;stroke-width:82;stroke-linecap:round;stroke-opacity:0.4;}
	.st2{fill:none;stroke:#0099FF;stroke-width:118;stroke-linecap:round;stroke-opacity:0.4;}
	.st3{fill:none;stroke:#0099FF;stroke-width:46;stroke-linecap:round;stroke-opacity:0.4;}
	.st4{fill:none;stroke:#0099FF;stroke-width:36;stroke-linecap:round;stroke-opacity:0.4;}
	.st5{fill:none;stroke:#0099FF;stroke-width:20;stroke-linecap:round;stroke-opacity:0.4;}
	.st6{fill:none;stroke:#0099FF;stroke-width:30;stroke-linecap:round;stroke-opacity:0.4;}
	.st7{fill:none;stroke:#0099FF;stroke-width:44;stroke-linecap:round;stroke-opacity:0.4;}
	.st8{fill:none;stroke:#0099FF;stroke-width:22;stroke-linecap:round;stroke-opacity:0.4;}
	.st9{fill:none;stroke:#0099FF;stroke-width:52;stroke-linecap:round;stroke-opacity:0.4;}
	.st10{fill:none;stroke:#0099FF;stroke-width:24;stroke-linecap:round;stroke-opacity:0.4;}
	.st11{fill:none;stroke:#0099FF;stroke-width:28;stroke-linecap:round;stroke-opacity:0.4;}
	.st12{fill:#222222;}
	.st13{font-family:'Roboto-Regular';}
	.st14{font-size:14px;}
	.st15{enable-background:new    ;}
	.st16{fill:none;stroke:#777777;}
	.st17{fill:#0099FF;stroke:#0099FF;}
	.st18{fill:none;stroke:#FFFFFF;}
	.st19{fill:#0099FF;}
</style>
<g>
	<g transform="translate(241.5,216.88888888888889)">
		<polygon class="st0" points="-120.2,18 -120.2,18 -120.2,18 		"/>
		<g>
			<path class="st1" d="M-120.2,164.5C-31.9,164.5-31.9-38,56.5-38"/>
			<path class="st2" d="M-120.2,164.5c88.4,0,88.4,202.5,176.8,202.5"/>
			<path class="st3" d="M56.5-38c88.4,0,88.4-105,176.8-105"/>
			<path class="st4" d="M56.5-38c88.4,0,88.4,105,176.8,105"/>
			<path class="st5" d="M233.3-143c88.4,0,88.4-30,176.8-30"/>
			<path class="st6" d="M233.3-143c88.4,0,88.4,30,176.8,30"/>
			<path class="st5" d="M233.3,67C321.6,67,321.6,7,410,7"/>
			<path class="st5" d="M233.3,67c88.4,0,88.4,0,176.8,0"/>
			<path class="st5" d="M233.3,67c88.4,0,88.4,60,176.8,60"/>
			<path class="st7" d="M56.5,367c88.4,0,88.4-90,176.8-90"/>
			<path class="st8" d="M56.5,367c88.4,0,88.4,0,176.8,0"/>
			<path class="st9" d="M56.5,367c88.4,0,88.4,90,176.8,90"/>
			<path class="st10" d="M233.3,277c88.4,0,88.4-30,176.8-30"/>
			<path class="st5" d="M233.3,277c88.4,0,88.4,30,176.8,30"/>
			<path class="st10" d="M233.3,457c88.4,0,88.4-30,176.8-30"/>
			<path class="st11" d="M233.3,457c88.4,0,88.4,30,176.8,30"/>
		</g>
		<g>
			<g transform="translate(176.75,349)">
				<text transform="matrix(1 0 0 1 -135.2488 -45.8238)" class="st12 st13 st14">Different Perspectives</text>
				<g id="node_27_text" class="st15">
					<text transform="matrix(1 0 0 1 -135.2488 -45.8238)" class="st16 st13 st14">Different Perspectives</text>
				</g>
				<circle class="st17" cx="-120.2" cy="18" r="59"/>
				<g class="st15">
					<text transform="matrix(1 0 0 1 -131.2488 23.9586)" class="st18 st13 st14">59</text>
				</g>
			</g>
			<g transform="translate(176.75,-56)">
				<text transform="matrix(1 0 0 1 -135.2488 -28.9767)" class="st12 st13 st14">Social Identity</text>
				<g id="node_9_text" class="st15">
					<text transform="matrix(1 0 0 1 -135.2488 -28.9767)" class="st16 st13 st14">Social Identity</text>
				</g>
				<circle class="st17" cx="-120.2" cy="18" r="41"/>
				<g class="st15">
					<text transform="matrix(1 0 0 1 -131.2488 23.9586)" class="st18 st13 st14">41</text>
				</g>
			</g>
			<g transform="translate(0,146.5)">
				<circle class="st19" cx="-120.2" cy="18" r="95"/>
			</g>
			<g transform="translate(353.5,49)">
				<text transform="matrix(1 0 0 1 -135.2488 -3.9264)" class="st12 st13 st14">Identity</text>
				<g id="node_15_text" class="st15">
					<text transform="matrix(1 0 0 1 -135.2488 -3.9264)" class="st16 st13 st14">Identity</text>
				</g>
				<circle class="st17" cx="-120.2" cy="18" r="18"/>
				<g class="st15">
					<text transform="matrix(1 0 0 1 -131.2488 23.9586)" class="st18 st13 st14">18</text>
				</g>
			</g>
			<g transform="translate(353.5,-161)">
				<text transform="matrix(1 0 0 1 -135.2488 -9.0126)" class="st12 st13 st14">Social Connections</text>
				<g id="node_7_text" class="st15">
					<text transform="matrix(1 0 0 1 -135.2488 -9.0126)" class="st16 st13 st14">Social Connections</text>
				</g>
				<circle class="st17" cx="-120.2" cy="18" r="23"/>
				<g class="st15">
					<text transform="matrix(1 0 0 1 -131.2488 23.9586)" class="st18 st13 st14">23</text>
				</g>
			</g>
			<g transform="translate(530.25,-131)">
				<text transform="matrix(1 0 0 1 -135.2488 -1.2409)" class="st12 st13 st14">Supported Friends</text>
				<g id="node_8_text" class="st15">
					<text transform="matrix(1 0 0 1 -135.2488 -1.2409)" class="st16 st13 st14">Supported Friends</text>
				</g>
				<circle class="st17" cx="-120.2" cy="18" r="15"/>
				<g class="st15">
					<text transform="matrix(1 0 0 1 -131.2488 23.9586)" class="st18 st13 st14">15</text>
				</g>
			</g>
			<g transform="translate(530.25,-191)">
				<text transform="matrix(1 0 0 1 -135.2488 2.9586)" class="st12 st13 st14">Strengthened Social Bonds</text>
				<g id="node_6_text" class="st15">
					<text transform="matrix(1 0 0 1 -135.2488 2.9586)" class="st16 st13 st14">Strengthened Social Bonds</text>
				</g>
				<circle class="st17" cx="-120.2" cy="18" r="10"/>
				<g class="st15">
					<text transform="matrix(1 0 0 1 -125.2488 23.9586)" class="st18 st13 st14">8</text>
				</g>
			</g>
			<g transform="translate(530.25,109)">
				<text transform="matrix(1 0 0 1 -135.2488 2.9586)" class="st12 st13 st14">Didn&apos;t Play a Role</text>
				<g id="node_16_text" class="st15">
					<text transform="matrix(1 0 0 1 -135.2488 2.9586)" class="st16 st13 st14">Didn&apos;t Play a Role</text>
				</g>
				<circle class="st17" cx="-120.2" cy="18" r="10"/>
				<g class="st15">
					<text transform="matrix(1 0 0 1 -125.2488 23.9586)" class="st18 st13 st14">2</text>
				</g>
			</g>
			<g transform="translate(530.25,49)">
				<text transform="matrix(1 0 0 1 -135.2488 2.9586)" class="st12 st13 st14">Played a Developmental Role</text>
				<g id="node_14_text" class="st15">
					<text transform="matrix(1 0 0 1 -135.2488 2.9586)" class="st16 st13 st14">Played a Developmental Role</text>
				</g>
				<circle class="st17" cx="-120.2" cy="18" r="10"/>
				<g class="st15">
					<text transform="matrix(1 0 0 1 -125.2488 23.9586)" class="st18 st13 st14">7</text>
				</g>
			</g>
			<g transform="translate(530.25,-11)">
				<text transform="matrix(1 0 0 1 -135.2488 2.9586)" class="st12 st13 st14">Became Part of Identity</text>
				<g id="node_12_text" class="st15">
					<text transform="matrix(1 0 0 1 -135.2488 2.9586)" class="st16 st13 st14">Became Part of Identity</text>
				</g>
				<circle class="st17" cx="-120.2" cy="18" r="10"/>
				<g class="st15">
					<text transform="matrix(1 0 0 1 -125.2488 23.9586)" class="st18 st13 st14">9</text>
				</g>
			</g>
			<g transform="translate(353.5,439)">
				<text transform="matrix(1 0 0 1 -135.2488 -12.2965)" class="st12 st13 st14">More Open-Minded</text>
				<g id="node_31_text" class="st15">
					<text transform="matrix(1 0 0 1 -135.2488 -12.2965)" class="st16 st13 st14">More Open-Minded</text>
				</g>
				<circle class="st17" cx="-120.2" cy="18" r="26"/>
				<g class="st15">
					<text transform="matrix(1 0 0 1 -131.2488 23.9586)" class="st18 st13 st14">26</text>
				</g>
			</g>
			<g transform="translate(353.5,349)">
				<text transform="matrix(1 0 0 1 -135.2488 1.7168)" class="st12 st13 st14">Deeper Appreciation</text>
				<g id="node_26_text" class="st15">
					<text transform="matrix(1 0 0 1 -135.2488 1.7168)" class="st16 st13 st14">Deeper Appreciation</text>
				</g>
				<circle class="st17" cx="-120.2" cy="18" r="11"/>
				<g class="st15">
					<text transform="matrix(1 0 0 1 -131.2488 23.9586)" class="st18 st13 st14">11</text>
				</g>
			</g>
			<g transform="translate(353.5,259)">
				<text transform="matrix(1 0 0 1 -214.384 -7.9491)" class="st12 st13 st14">New Social Connections and Skills</text>
				<g id="node_23_text" class="st15">
					<text transform="matrix(1 0 0 1 -214.384 -7.9491)" class="st16 st13 st14">New Social Connections and Skills</text>
				</g>
				<circle class="st17" cx="-120.2" cy="18" r="22"/>
				<g class="st15">
					<text transform="matrix(1 0 0 1 -131.2488 23.9586)" class="st18 st13 st14">22</text>
				</g>
			</g>
			<g transform="translate(530.25,289)">
				<text transform="matrix(1 0 0 1 -135.2488 2.9586)" class="st12 st13 st14">New Social Bonds</text>
				<g id="node_24_text" class="st15">
					<text transform="matrix(1 0 0 1 -135.2488 2.9586)" class="st16 st13 st14">New Social Bonds</text>
				</g>
				<circle class="st17" cx="-120.2" cy="18" r="10"/>
				<g class="st15">
					<text transform="matrix(1 0 0 1 -131.2488 23.9586)" class="st18 st13 st14">10</text>
				</g>
			</g>
			<g transform="translate(530.25,229)">
				<text transform="matrix(1 0 0 1 -135.2488 1.0556)" class="st12 st13 st14">Gained Skills</text>
				<g id="node_22_text" class="st15">
					<text transform="matrix(1 0 0 1 -135.2488 1.0556)" class="st16 st13 st14">Gained Skills</text>
				</g>
				<circle class="st17" cx="-120.2" cy="18" r="12"/>
				<g class="st15">
					<text transform="matrix(1 0 0 1 -131.2488 23.9586)" class="st18 st13 st14">12</text>
				</g>
			</g>
			<g transform="translate(530.25,469)">
				<text transform="matrix(1 0 0 1 -135.2488 -0.4272)" class="st12 st13 st14">Finding Balance in Life</text>
				<g id="node_32_text" class="st15">
					<text transform="matrix(1 0 0 1 -135.2488 -0.4272)" class="st16 st13 st14">Finding Balance in Life</text>
				</g>
				<circle class="st17" cx="-120.2" cy="18" r="14"/>
				<g class="st15">
					<text transform="matrix(1 0 0 1 -131.2488 23.9586)" class="st18 st13 st14">14</text>
				</g>
			</g>
			<g transform="translate(530.25,409)">
				<text transform="matrix(1 0 0 1 -135.2488 1.0556)" class="st12 st13 st14">Cultural Understanding</text>
				<g id="node_30_text" class="st15">
					<text transform="matrix(1 0 0 1 -135.2488 1.0556)" class="st16 st13 st14">Cultural Understanding</text>
				</g>
				<circle class="st17" cx="-120.2" cy="18" r="12"/>
				<g class="st15">
					<text transform="matrix(1 0 0 1 -131.2488 23.9586)" class="st18 st13 st14">12</text>
				</g>
			</g>
		</g>
	</g>
</g>
</svg>
