<?xml version="1.0" encoding="utf-8"?>
<!-- Generator: Adobe Illustrator 24.0.1, SVG Export Plug-In . SVG Version: 6.00 Build 0)  -->
<svg version="1.1" id="vz2e85a477" xmlns="http://www.w3.org/2000/svg" xmlns:xlink="http://www.w3.org/1999/xlink" x="0px" y="0px"
	 viewBox="0 0 1088 666" style="enable-background:new 0 0 1088 666;" xml:space="preserve">
<style type="text/css">
	.st0{fill:none;}
	.st1{fill:none;stroke:#0099FF;stroke-width:90;stroke-linecap:round;stroke-opacity:0.4;}
	.st2{fill:none;stroke:#0099FF;stroke-width:110;stroke-linecap:round;stroke-opacity:0.4;}
	.st3{fill:none;stroke:#0099FF;stroke-width:28;stroke-linecap:round;stroke-opacity:0.4;}
	.st4{fill:none;stroke:#0099FF;stroke-width:20;stroke-linecap:round;stroke-opacity:0.4;}
	.st5{fill:none;stroke:#0099FF;stroke-width:44;stroke-linecap:round;stroke-opacity:0.4;}
	.st6{fill:none;stroke:#0099FF;stroke-width:24;stroke-linecap:round;stroke-opacity:0.4;}
	.st7{fill:none;stroke:#0099FF;stroke-width:26;stroke-linecap:round;stroke-opacity:0.4;}
	.st8{fill:#222222;}
	.st9{font-family:'Roboto-Regular';}
	.st10{font-size:12px;}
	.st11{enable-background:new    ;}
	.st12{fill:none;stroke:#777777;}
	.st13{fill:#0099FF;stroke:#0099FF;}
	.st14{fill:none;stroke:#FFFFFF;}
	.st15{fill:#0099FF;}
</style>
<g>
	<g transform="translate(202.5,255.66666666666669)">
		<polygon class="st0" points="0,0 0,0 0,0 		"/>
		<g>
			<path class="st1" d="M0,63.6c103.5,0,103.5-165,207-165"/>
			<path class="st2" d="M0,63.6c103.5,0,103.5,165,207,165"/>
			<path class="st3" d="M207-101.4c103.5,0,103.5-90,207-90"/>
			<path class="st4" d="M207-101.4c103.5,0,103.5,0,207,0"/>
			<path class="st5" d="M207-101.4c103.5,0,103.5,90,207,90"/>
			<path class="st4" d="M414-191.4c103.5,0,103.5-30,207-30"/>
			<path class="st4" d="M414-191.4c103.5,0,103.5,30,207,30"/>
			<path class="st4" d="M414-11.4c103.5,0,103.5-30,207-30"/>
			<path class="st3" d="M414-11.4c103.5,0,103.5,30,207,30"/>
			<path class="st6" d="M207,228.6c103.5,0,103.5-120,207-120"/>
			<path class="st3" d="M207,228.6c103.5,0,103.5-60,207-60"/>
			<path class="st4" d="M207,228.6c103.5,0,103.5,30,207,30"/>
			<path class="st5" d="M207,228.6c103.5,0,103.5,120,207,120"/>
			<path class="st4" d="M414,168.6c103.5,0,103.5-30,207-30"/>
			<path class="st4" d="M414,168.6c103.5,0,103.5,30,207,30"/>
			<path class="st4" d="M414,348.6c103.5,0,103.5-30,207-30"/>
			<path class="st7" d="M414,348.6c103.5,0,103.5,30,207,30"/>
		</g>
		<g>
			<g transform="translate(207,228.60000610351562)">
				<text transform="matrix(1 0 0 1 -13 -60.3635)" class="st8 st9 st10">Humanist Perspective</text>
				<g id="node_29_text" class="st11">
					<text transform="matrix(1 0 0 1 -13 -60.3635)" class="st12 st9 st10">Humanist Perspective</text>
				</g>
				<circle class="st13" cx="0" cy="0" r="55"/>
				<g class="st11">
					<text transform="matrix(1 0 0 1 -9 6)" class="st14 st9 st10">55</text>
				</g>
			</g>
			<g transform="translate(207,-101.4000015258789)">
				<text transform="matrix(1 0 0 1 -13 -51.0478)" class="st8 st9 st10">Self Fulfillment</text>
				<g id="node_11_text" class="st11">
					<text transform="matrix(1 0 0 1 -13 -51.0478)" class="st12 st9 st10">Self Fulfillment</text>
				</g>
				<circle class="st13" cx="0" cy="0" r="45"/>
				<g class="st11">
					<text transform="matrix(1 0 0 1 -9 6.0001)" class="st14 st9 st10">45</text>
				</g>
			</g>
			<g transform="translate(0,63.599998474121094)">
				<circle class="st15" cx="0" cy="0" r="95"/>
			</g>
			<g transform="translate(414,-11.399999618530273)">
				<text transform="matrix(1 0 0 1 -13 -25.9077)" class="st8 st9 st10">Intra-Personal Growth</text>
				<g id="node_15_text" class="st11">
					<text transform="matrix(1 0 0 1 -13 -25.9077)" class="st12 st9 st10">Intra-Personal Growth</text>
				</g>
				<circle class="st13" cx="0" cy="0" r="22"/>
				<g class="st11">
					<text transform="matrix(1 0 0 1 -9 6)" class="st14 st9 st10">22</text>
				</g>
			</g>
			<g transform="translate(414,-101.4000015258789)">
				<text transform="matrix(1 0 0 1 -13 -14.9999)" class="st8 st9 st10">Personal Skills</text>
				<g id="node_10_text" class="st11">
					<text transform="matrix(1 0 0 1 -13 -14.9999)" class="st12 st9 st10">Personal Skills</text>
				</g>
				<circle class="st13" cx="0" cy="0" r="10"/>
				<g class="st11">
					<text transform="matrix(1 0 0 1 -3 6.0001)" class="st14 st9 st10">9</text>
				</g>
			</g>
			<g transform="translate(414,-191.39999389648438)">
				<text transform="matrix(1 0 0 1 -13 -18.3858)" class="st8 st9 st10">Experiencing the New</text>
				<g id="node_7_text" class="st11">
					<text transform="matrix(1 0 0 1 -13 -18.3858)" class="st12 st9 st10">Experiencing the New</text>
				</g>
				<circle class="st13" cx="0" cy="0" r="14"/>
				<g class="st11">
					<text transform="matrix(1 0 0 1 -9 6)" class="st14 st9 st10">14</text>
				</g>
			</g>
			<g transform="translate(621,-161.39999389648438)">
				<text transform="matrix(1 0 0 1 -13 -15)" class="st8 st9 st10">Exposure to New Experiences</text>
				<g id="node_8_text" class="st11">
					<text transform="matrix(1 0 0 1 -13 -15)" class="st12 st9 st10">Exposure to New Experiences</text>
				</g>
				<circle class="st13" cx="0" cy="0" r="10"/>
				<g class="st11">
					<text transform="matrix(1 0 0 1 -3 6)" class="st14 st9 st10">8</text>
				</g>
			</g>
			<g transform="translate(621,-221.39999389648438)">
				<text transform="matrix(1 0 0 1 -13 -15)" class="st8 st9 st10">Connect with People in New…</text>
				<g id="node_6_text" class="st11">
					<text transform="matrix(1 0 0 1 -13 -15)" class="st12 st9 st10">Connect with People in New Ways</text>
				</g>
				<circle class="st13" cx="0" cy="0" r="10"/>
				<g class="st11">
					<text transform="matrix(1 0 0 1 -3 6)" class="st14 st9 st10">6</text>
				</g>
			</g>
			<g transform="translate(621,18.600000381469727)">
				<text transform="matrix(1 0 0 1 -13 -18.3858)" class="st8 st9 st10">More Self-Aware</text>
				<g id="node_16_text" class="st11">
					<text transform="matrix(1 0 0 1 -13 -18.3858)" class="st12 st9 st10">More Self-Aware</text>
				</g>
				<circle class="st13" cx="0" cy="0" r="14"/>
				<g class="st11">
					<text transform="matrix(1 0 0 1 -9 6)" class="st14 st9 st10">14</text>
				</g>
			</g>
			<g transform="translate(621,-41.400001525878906)">
				<text transform="matrix(1 0 0 1 -13 -14.9999)" class="st8 st9 st10">Self Exploration</text>
				<g id="node_14_text" class="st11">
					<text transform="matrix(1 0 0 1 -13 -14.9999)" class="st12 st9 st10">Self Exploration</text>
				</g>
				<circle class="st13" cx="0" cy="0" r="10"/>
				<g class="st11">
					<text transform="matrix(1 0 0 1 -3 6)" class="st14 st9 st10">8</text>
				</g>
			</g>
			<g transform="translate(414,348.6000061035156)">
				<text transform="matrix(1 0 0 1 -13 -25.9077)" class="st8 st9 st10">Holistically</text>
				<g id="node_33_text" class="st11">
					<text transform="matrix(1 0 0 1 -13 -25.9077)" class="st12 st9 st10">Holistically</text>
				</g>
				<circle class="st13" cx="0" cy="0" r="22"/>
				<g class="st11">
					<text transform="matrix(1 0 0 1 -9 6)" class="st14 st9 st10">22</text>
				</g>
			</g>
			<g transform="translate(414,258.6000061035156)">
				<text transform="matrix(1 0 0 1 -13 -15)" class="st8 st9 st10">More Open-Minded</text>
				<g id="node_28_text" class="st11">
					<text transform="matrix(1 0 0 1 -13 -15)" class="st12 st9 st10">More Open-Minded</text>
				</g>
				<circle class="st13" cx="0" cy="0" r="10"/>
				<g class="st11">
					<text transform="matrix(1 0 0 1 -3 6)" class="st14 st9 st10">7</text>
				</g>
			</g>
			<g transform="translate(414,168.60000610351562)">
				<text transform="matrix(1 0 0 1 -13 -18.3858)" class="st8 st9 st10">Empathetic</text>
				<g id="node_25_text" class="st11">
					<text transform="matrix(1 0 0 1 -13 -18.3858)" class="st12 st9 st10">Empathetic</text>
				</g>
				<circle class="st13" cx="0" cy="0" r="14"/>
				<g class="st11">
					<text transform="matrix(1 0 0 1 -9 6)" class="st14 st9 st10">14</text>
				</g>
			</g>
			<g transform="translate(414,108.5999984741211)">
				<text transform="matrix(1 0 0 1 -13 -16.903)" class="st8 st9 st10">Cultural Appreciation</text>
				<g id="node_20_text" class="st11">
					<text transform="matrix(1 0 0 1 -13 -16.903)" class="st12 st9 st10">Cultural Appreciation</text>
				</g>
				<circle class="st13" cx="0" cy="0" r="12"/>
				<g class="st11">
					<text transform="matrix(1 0 0 1 -9 6)" class="st14 st9 st10">12</text>
				</g>
			</g>
			<g transform="translate(621,198.60000610351562)">
				<text transform="matrix(1 0 0 1 -13 -15)" class="st8 st9 st10">Expanded Worldview</text>
				<g id="node_26_text" class="st11">
					<text transform="matrix(1 0 0 1 -13 -15)" class="st12 st9 st10">Expanded Worldview</text>
				</g>
				<circle class="st13" cx="0" cy="0" r="10"/>
				<g class="st11">
					<text transform="matrix(1 0 0 1 -3 6)" class="st14 st9 st10">5</text>
				</g>
			</g>
			<g transform="translate(621,138.60000610351562)">
				<text transform="matrix(1 0 0 1 -13 -15)" class="st8 st9 st10">Understanding and Acceptin…</text>
				<g id="node_24_text" class="st11">
					<text transform="matrix(1 0 0 1 -13 -15)" class="st12 st9 st10">Understanding and Accepting Others</text>
				</g>
				<circle class="st13" cx="0" cy="0" r="10"/>
				<g class="st11">
					<text transform="matrix(1 0 0 1 -3 6)" class="st14 st9 st10">9</text>
				</g>
			</g>
			<g transform="translate(621,378.6000061035156)">
				<text transform="matrix(1 0 0 1 -13 -17.619)" class="st8 st9 st10">Creativity, Expression and…</text>
				<g id="node_34_text" class="st11">
					<text transform="matrix(1 0 0 1 -13 -17.619)" class="st12 st9 st10">Creativity, Expression and Communication</text>
				</g>
				<circle class="st13" cx="0" cy="0" r="13"/>
				<g class="st11">
					<text transform="matrix(1 0 0 1 -9 6)" class="st14 st9 st10">13</text>
				</g>
			</g>
			<g transform="translate(621,318.6000061035156)">
				<text transform="matrix(1 0 0 1 -13 -15)" class="st8 st9 st10">Spiritually, Emotionally, …</text>
				<g id="node_32_text" class="st11">
					<text transform="matrix(1 0 0 1 -13 -15)" class="st12 st9 st10">Spiritually, Emotionally, Mentally, Physically</text>
				</g>
				<circle class="st13" cx="0" cy="0" r="10"/>
				<g class="st11">
					<text transform="matrix(1 0 0 1 -3 6)" class="st14 st9 st10">9</text>
				</g>
			</g>
		</g>
	</g>
</g>
</svg>
