<?xml version="1.0" encoding="utf-8"?>
<!-- Generator: Adobe Illustrator 24.0.1, SVG Export Plug-In . SVG Version: 6.00 Build 0)  -->
<svg version="1.1" id="vz80be0965" xmlns="http://www.w3.org/2000/svg" xmlns:xlink="http://www.w3.org/1999/xlink" x="0px" y="0px"
	 viewBox="0 0 1335 768" style="enable-background:new 0 0 1335 768;" xml:space="preserve">
<style type="text/css">
	.st0{fill:none;}
	.st1{fill:none;stroke:#0099FF;stroke-width:144;stroke-linecap:round;stroke-opacity:0.4;}
	.st2{fill:none;stroke:#0099FF;stroke-width:20;stroke-linecap:round;stroke-opacity:0.4;}
	.st3{fill:none;stroke:#0099FF;stroke-width:36;stroke-linecap:round;stroke-opacity:0.4;}
	.st4{fill:none;stroke:#0099FF;stroke-width:56;stroke-linecap:round;stroke-opacity:0.4;}
	.st5{fill:none;stroke:#0099FF;stroke-width:88;stroke-linecap:round;stroke-opacity:0.4;}
	.st6{fill:none;stroke:#0099FF;stroke-width:42;stroke-linecap:round;stroke-opacity:0.4;}
	.st7{fill:none;stroke:#0099FF;stroke-width:28;stroke-linecap:round;stroke-opacity:0.4;}
	.st8{fill:none;stroke:#0099FF;stroke-width:44;stroke-linecap:round;stroke-opacity:0.4;}
	.st9{fill:none;stroke:#0099FF;stroke-width:22;stroke-linecap:round;stroke-opacity:0.4;}
	.st10{fill:#222222;}
	.st11{font-family:'Roboto-Regular';}
	.st12{font-size:14px;}
	.st13{enable-background:new    ;}
	.st14{fill:none;stroke:#777777;}
	.st15{fill:#0099FF;stroke:#0099FF;}
	.st16{fill:none;stroke:#FFFFFF;}
	.st17{fill:#0099FF;}
</style>
<g>
	<g transform="translate(238.5,243.8888888888889)">
		<polygon class="st0" points="0,32 0,32 0,32 		"/>
		<g>
			<path class="st1" d="M0,194.4c81.7,0,81.7-165,163.3-165"/>
			<path class="st2" d="M0,194.4c81.7,0,81.7,0,163.3,0"/>
			<path class="st3" d="M0,194.4c81.7,0,81.7,165,163.3,165"/>
			<path class="st4" d="M163.3,29.4c81.7,0,81.7-180,163.3-180"/>
			<path class="st5" d="M163.3,29.4c81.7,0,81.7,180,163.3,180"/>
			<path class="st2" d="M326.7-150.6c81.7,0,81.7-30,163.3-30"/>
			<path class="st6" d="M326.7-150.6c81.7,0,81.7,30,163.3,30"/>
			<path class="st2" d="M490-120.6c81.7,0,81.7-30,163.3-30"/>
			<path class="st7" d="M490-120.6c81.7,0,81.7,30,163.3,30"/>
			<path class="st2" d="M653.3-90.6c81.7,0,81.7-30,163.3-30"/>
			<path class="st2" d="M653.3-90.6c81.7,0,81.7,30,163.3,30"/>
			<path class="st8" d="M326.7,209.4c81.7,0,81.7-150,163.3-150"/>
			<path class="st8" d="M326.7,209.4c81.7,0,81.7,150,163.3,150"/>
			<path class="st2" d="M490,59.4c81.7,0,81.7-30,163.3-30"/>
			<path class="st3" d="M490,59.4c81.7,0,81.7,30,163.3,30"/>
			<path class="st2" d="M653.3,89.4c81.7,0,81.7-30,163.3-30"/>
			<path class="st9" d="M653.3,89.4c81.7,0,81.7,30,163.3,30"/>
			<path class="st9" d="M490,359.4c81.7,0,81.7-90,163.3-90"/>
			<path class="st9" d="M490,359.4c81.7,0,81.7,90,163.3,90"/>
			<path class="st2" d="M653.3,269.4c81.7,0,81.7-30,163.3-30"/>
			<path class="st2" d="M653.3,269.4c81.7,0,81.7,30,163.3,30"/>
			<path class="st2" d="M653.3,449.4c81.7,0,81.7-30,163.3-30"/>
			<path class="st2" d="M653.3,449.4c81.7,0,81.7,30,163.3,30"/>
			<path class="st2" d="M163.3,359.4c81.7,0,81.7-30,163.3-30"/>
			<path class="st2" d="M163.3,359.4c81.7,0,81.7,30,163.3,30"/>
		</g>
		<g>
			<g transform="translate(163.3333282470703,327.3999938964844)">
				<text transform="matrix(1 0 0 1 -15 10.115)" class="st10 st11 st12">Uninvolved</text>
				<g id="node_49_text" class="st13">
					<text transform="matrix(1 0 0 1 -15 10.115)" class="st14 st11 st12">Uninvolved</text>
				</g>
				<circle class="st15" cx="0" cy="32" r="18"/>
				<g class="st13">
					<text transform="matrix(1 0 0 1 -11 38)" class="st16 st11 st12">18</text>
				</g>
			</g>
			<g transform="translate(163.3333282470703,162.39999389648438)">
				<text transform="matrix(1 0 0 1 -15 17)" class="st10 st11 st12">Entertained</text>
				<g id="node_44_text" class="st13">
					<text transform="matrix(1 0 0 1 -15 17)" class="st14 st11 st12">Entertained</text>
				</g>
				<circle class="st15" cx="0" cy="32" r="10"/>
				<g class="st13">
					<text transform="matrix(1 0 0 1 -5 38)" class="st16 st11 st12">9</text>
				</g>
			</g>
			<g transform="translate(163.3333282470703,-2.5999999046325684)">
				<text transform="matrix(1 0 0 1 -15 -43.067)" class="st10 st11 st12">Enlightened</text>
				<g id="node_17_text" class="st13">
					<text transform="matrix(1 0 0 1 -15 -43.067)" class="st14 st11 st12">Enlightened</text>
				</g>
				<circle class="st15" cx="0" cy="32" r="72"/>
				<g class="st13">
					<text transform="matrix(1 0 0 1 -11 38)" class="st16 st11 st12">72</text>
				</g>
			</g>
			<g transform="translate(0,162.39999389648438)">
				<circle class="st17" cx="0" cy="32" r="95"/>
			</g>
			<g transform="translate(326.6666564941406,177.39999389648438)">
				<text transform="matrix(1 0 0 1 -15 -18.0405)" class="st10 st11 st12">Fulfilled</text>
				<g id="node_29_text" class="st13">
					<text transform="matrix(1 0 0 1 -15 -18.0405)" class="st14 st11 st12">Fulfilled</text>
				</g>
				<circle class="st15" cx="0" cy="32" r="44"/>
				<g class="st13">
					<text transform="matrix(1 0 0 1 -11 38)" class="st16 st11 st12">44</text>
				</g>
			</g>
			<g transform="translate(326.6666564941406,-182.60000610351562)">
				<text transform="matrix(1 0 0 1 -15 -0.4968)" class="st10 st11 st12">Connected and Empowered</text>
				<g id="node_7_text" class="st13">
					<text transform="matrix(1 0 0 1 -15 -0.4968)" class="st14 st11 st12">Connected and Empowered</text>
				</g>
				<circle class="st15" cx="0" cy="32" r="28"/>
				<g class="st13">
					<text transform="matrix(1 0 0 1 -11 37.9999)" class="st16 st11 st12">28</text>
				</g>
			</g>
			<g transform="translate(490,-152.60000610351562)">
				<text transform="matrix(1 0 0 1 -15 7.1357)" class="st10 st11 st12">Empowered</text>
				<g id="node_11_text" class="st13">
					<text transform="matrix(1 0 0 1 -15 7.1357)" class="st14 st11 st12">Empowered</text>
				</g>
				<circle class="st15" cx="0" cy="32" r="21"/>
				<g class="st13">
					<text transform="matrix(1 0 0 1 -11 37.9999)" class="st16 st11 st12">21</text>
				</g>
			</g>
			<g transform="translate(490,-212.60000610351562)">
				<text transform="matrix(1 0 0 1 -15 16.9999)" class="st10 st11 st12">Connected to Others throug…</text>
				<g id="node_6_text" class="st13">
					<text transform="matrix(1 0 0 1 -15 16.9999)" class="st14 st11 st12">Connected to Others through the Arts</text>
				</g>
				<circle class="st15" cx="0" cy="32" r="10"/>
				<g class="st13">
					<text transform="matrix(1 0 0 1 -5 37.9999)" class="st16 st11 st12">7</text>
				</g>
			</g>
			<g transform="translate(653.3333129882812,-122.5999984741211)">
				<text transform="matrix(1 0 0 1 -15 13.6142)" class="st10 st11 st12">Successful</text>
				<g id="node_15_text" class="st13">
					<text transform="matrix(1 0 0 1 -15 13.6142)" class="st14 st11 st12">Successful</text>
				</g>
				<circle class="st15" cx="0" cy="32" r="14"/>
				<g class="st13">
					<text transform="matrix(1 0 0 1 -11 38.0001)" class="st16 st11 st12">14</text>
				</g>
			</g>
			<g transform="translate(653.3333129882812,-182.60000610351562)">
				<text transform="matrix(1 0 0 1 -15 16.9999)" class="st10 st11 st12">Less Stressed and More Exp…</text>
				<g id="node_10_text" class="st13">
					<text transform="matrix(1 0 0 1 -15 16.9999)" class="st14 st11 st12">Less Stressed and More Expressive</text>
				</g>
				<circle class="st15" cx="0" cy="32" r="10"/>
				<g class="st13">
					<text transform="matrix(1 0 0 1 -5 37.9999)" class="st16 st11 st12">7</text>
				</g>
			</g>
			<g transform="translate(816.6666870117188,-92.5999984741211)">
				<text transform="matrix(1 0 0 1 -14.9999 17.0001)" class="st10 st11 st12">Accomplished &amp; Creative</text>
				<g id="node_16_text" class="st13">
					<text transform="matrix(1 0 0 1 -14.9999 17.0001)" class="st14 st11 st12">Accomplished &amp; Creative</text>
				</g>
				<circle class="st15" cx="0" cy="32" r="10"/>
				<g class="st13">
					<text transform="matrix(1 0 0 1 -4.9999 38.0001)" class="st16 st11 st12">8</text>
				</g>
			</g>
			<g transform="translate(816.6666870117188,-152.60000610351562)">
				<text transform="matrix(1 0 0 1 -14.9999 16.9999)" class="st10 st11 st12">Proud</text>
				<g id="node_14_text" class="st13">
					<text transform="matrix(1 0 0 1 -14.9999 16.9999)" class="st14 st11 st12">Proud</text>
				</g>
				<circle class="st15" cx="0" cy="32" r="10"/>
				<g class="st13">
					<text transform="matrix(1 0 0 1 -4.9999 37.9999)" class="st16 st11 st12">6</text>
				</g>
			</g>
			<g transform="translate(490,327.3999938964844)">
				<text transform="matrix(1 0 0 1 -15 6.0923)" class="st10 st11 st12">Gratitude</text>
				<g id="node_37_text" class="st13">
					<text transform="matrix(1 0 0 1 -15 6.0923)" class="st14 st11 st12">Gratitude</text>
				</g>
				<circle class="st15" cx="0" cy="32" r="22"/>
				<g class="st13">
					<text transform="matrix(1 0 0 1 -11 38)" class="st16 st11 st12">22</text>
				</g>
			</g>
			<g transform="translate(490,27.399999618530273)">
				<text transform="matrix(1 0 0 1 -15 6.0923)" class="st10 st11 st12">Meaningful</text>
				<g id="node_23_text" class="st13">
					<text transform="matrix(1 0 0 1 -15 6.0923)" class="st14 st11 st12">Meaningful</text>
				</g>
				<circle class="st15" cx="0" cy="32" r="22"/>
				<g class="st13">
					<text transform="matrix(1 0 0 1 -11 38)" class="st16 st11 st12">22</text>
				</g>
			</g>
			<g transform="translate(653.3333129882812,57.400001525878906)">
				<text transform="matrix(1 0 0 1 -15 10.115)" class="st10 st11 st12">Connected</text>
				<g id="node_27_text" class="st13">
					<text transform="matrix(1 0 0 1 -15 10.115)" class="st14 st11 st12">Connected</text>
				</g>
				<circle class="st15" cx="0" cy="32" r="18"/>
				<g class="st13">
					<text transform="matrix(1 0 0 1 -11 38)" class="st16 st11 st12">18</text>
				</g>
			</g>
			<g transform="translate(653.3333129882812,-2.5999999046325684)">
				<text transform="matrix(1 0 0 1 -15 17)" class="st10 st11 st12">Well Rounded</text>
				<g id="node_22_text" class="st13">
					<text transform="matrix(1 0 0 1 -15 17)" class="st14 st11 st12">Well Rounded</text>
				</g>
				<circle class="st15" cx="0" cy="32" r="10"/>
				<g class="st13">
					<text transform="matrix(1 0 0 1 -5 38)" class="st16 st11 st12">4</text>
				</g>
			</g>
			<g transform="translate(816.6666870117188,87.4000015258789)">
				<text transform="matrix(1 0 0 1 -14.9999 15.7582)" class="st10 st11 st12">Gained Perspective and App…</text>
				<g id="node_28_text" class="st13">
					<text transform="matrix(1 0 0 1 -14.9999 15.7582)" class="st14 st11 st12">Gained Perspective and Appreciation</text>
				</g>
				<circle class="st15" cx="0" cy="32" r="11"/>
				<g class="st13">
					<text transform="matrix(1 0 0 1 -10.9999 38)" class="st16 st11 st12">11</text>
				</g>
			</g>
			<g transform="translate(816.6666870117188,27.399999618530273)">
				<text transform="matrix(1 0 0 1 -14.9999 17)" class="st10 st11 st12">Part of Something Bigger</text>
				<g id="node_26_text" class="st13">
					<text transform="matrix(1 0 0 1 -14.9999 17)" class="st14 st11 st12">Part of Something Bigger</text>
				</g>
				<circle class="st15" cx="0" cy="32" r="10"/>
				<g class="st13">
					<text transform="matrix(1 0 0 1 -4.9999 38)" class="st16 st11 st12">7</text>
				</g>
			</g>
			<g transform="translate(653.3333129882812,417.3999938964844)">
				<text transform="matrix(1 0 0 1 -15 15.7582)" class="st10 st11 st12">Gratified</text>
				<g id="node_41_text" class="st13">
					<text transform="matrix(1 0 0 1 -15 15.7582)" class="st14 st11 st12">Gratified</text>
				</g>
				<circle class="st15" cx="0" cy="32" r="11"/>
				<g class="st13">
					<text transform="matrix(1 0 0 1 -11 38)" class="st16 st11 st12">11</text>
				</g>
			</g>
			<g transform="translate(653.3333129882812,237.39999389648438)">
				<text transform="matrix(1 0 0 1 -15 15.7582)" class="st10 st11 st12">Balanced</text>
				<g id="node_35_text" class="st13">
					<text transform="matrix(1 0 0 1 -15 15.7582)" class="st14 st11 st12">Balanced</text>
				</g>
				<circle class="st15" cx="0" cy="32" r="11"/>
				<g class="st13">
					<text transform="matrix(1 0 0 1 -11 38)" class="st16 st11 st12">11</text>
				</g>
			</g>
			<g transform="translate(816.6666870117188,267.3999938964844)">
				<text transform="matrix(1 0 0 1 -14.9999 17)" class="st10 st11 st12">Refreshed</text>
				<g id="node_36_text" class="st13">
					<text transform="matrix(1 0 0 1 -14.9999 17)" class="st14 st11 st12">Refreshed</text>
				</g>
				<circle class="st15" cx="0" cy="32" r="10"/>
				<g class="st13">
					<text transform="matrix(1 0 0 1 -4.9999 38)" class="st16 st11 st12">6</text>
				</g>
			</g>
			<g transform="translate(816.6666870117188,207.39999389648438)">
				<text transform="matrix(1 0 0 1 -14.9999 17)" class="st10 st11 st12">Culturally Aware</text>
				<g id="node_34_text" class="st13">
					<text transform="matrix(1 0 0 1 -14.9999 17)" class="st14 st11 st12">Culturally Aware</text>
				</g>
				<circle class="st15" cx="0" cy="32" r="10"/>
				<g class="st13">
					<text transform="matrix(1 0 0 1 -4.9999 38)" class="st16 st11 st12">5</text>
				</g>
			</g>
			<g transform="translate(816.6666870117188,447.3999938964844)">
				<text transform="matrix(1 0 0 1 -14.9999 17)" class="st10 st11 st12">Happy</text>
				<g id="node_42_text" class="st13">
					<text transform="matrix(1 0 0 1 -14.9999 17)" class="st14 st11 st12">Happy</text>
				</g>
				<circle class="st15" cx="0" cy="32" r="10"/>
				<g class="st13">
					<text transform="matrix(1 0 0 1 -4.9999 38)" class="st16 st11 st12">6</text>
				</g>
			</g>
			<g transform="translate(816.6666870117188,387.3999938964844)">
				<text transform="matrix(1 0 0 1 -14.9999 17)" class="st10 st11 st12">Grateful</text>
				<g id="node_40_text" class="st13">
					<text transform="matrix(1 0 0 1 -14.9999 17)" class="st14 st11 st12">Grateful</text>
				</g>
				<circle class="st15" cx="0" cy="32" r="10"/>
				<g class="st13">
					<text transform="matrix(1 0 0 1 -4.9999 38)" class="st16 st11 st12">5</text>
				</g>
			</g>
			<g transform="translate(326.6666564941406,357.3999938964844)">
				<text transform="matrix(1 0 0 1 -15 17)" class="st10 st11 st12">Wishful</text>
				<g id="node_50_text" class="st13">
					<text transform="matrix(1 0 0 1 -15 17)" class="st14 st11 st12">Wishful</text>
				</g>
				<circle class="st15" cx="0" cy="32" r="10"/>
				<g class="st13">
					<text transform="matrix(1 0 0 1 -5 38)" class="st16 st11 st12">8</text>
				</g>
			</g>
			<g transform="translate(326.6666564941406,297.3999938964844)">
				<text transform="matrix(1 0 0 1 -15 17)" class="st10 st11 st12">Regretful</text>
				<g id="node_48_text" class="st13">
					<text transform="matrix(1 0 0 1 -15 17)" class="st14 st11 st12">Regretful</text>
				</g>
				<circle class="st15" cx="0" cy="32" r="10"/>
				<g class="st13">
					<text transform="matrix(1 0 0 1 -11 38)" class="st16 st11 st12">10</text>
				</g>
			</g>
		</g>
	</g>
</g>
</svg>
